<svg xmlns="http://www.w3.org/2000/svg" width="30" height="24" viewBox="0 0 30 24">
  <path id="quote-svgrepo-com" d="M12.8,8.93,11.716,7.219C4.184,12.4,0,18.684,0,23.861c0,5.005,3.6,7.358,6.653,7.358a6.739,6.739,0,0,0,6.569-6.845,6.875,6.875,0,0,0-4.31-6.418c-.711-.257-1.38-.471-1.38-1.711,0-1.583,1.13-3.936,5.273-7.316Zm16.611,0L28.326,7.219C20.878,12.4,16.611,18.684,16.611,23.861c0,5.005,3.682,7.358,6.736,7.358A6.783,6.783,0,0,0,30,24.374a6.862,6.862,0,0,0-4.436-6.418c-.711-.257-1.339-.471-1.339-1.711,0-1.583,1.172-3.936,5.188-7.316Z" transform="translate(0 -7.219)" fill="#fff" opacity="0.5"/>
</svg>
